<?xml version="1.0"?>
<svg id="_Слой_1" data-name="Слой 1" xmlns="http://www.w3.org/2000/svg" xmlns:xlink="http://www.w3.org/1999/xlink" viewBox="0 0 1080 1080">
  <defs>
    
    <mask id="mask" x="212" y="22.6" width="666" height="1039.4" maskUnits="userSpaceOnUse">
      <g fill="white">
        <polygon points="316.3 234.83 316.3 358.98 223.63 407.87 223.63 283.56 316.3 234.83"></polygon>
        <polygon points="316.3 377.5 316.3 859.52 223.63 811.22 223.63 426.23 316.3 377.5"></polygon>
        <path d="M479,503.29v80.09c-64.01,44.72-106,119.76-106,204.79,0,33.5,6.52,65.45,18.33,94.61l-9.29,7.47-49.04,39.44v-349.61l146-76.79Z"></path>
        <polygon points="479 28.84 479 483.98 333 560.76 333 99.7 479 28.84"></polygon>
        <polygon points="588.33 145.06 588.33 295.89 497 359.11 497 208.29 588.33 145.06"></polygon>
        <polygon points="588.33 22.6 588.33 83.73 497 146.95 497 85.82 588.33 22.6"></polygon>
        <path d="M588.33,337.88v203.78c-32.89,3.88-63.78,14.43-91.33,30.28v-170.84l91.33-63.22Z"></path>
        <path d="M782.59,791.47c0,7-5.67,12.67-12.67,12.67h-148.57c-8.29,0-15.02-6.72-15.02-15.01v-173.91c0-6.99,5.67-12.66,12.67-12.66,3.5,0,6.67,1.42,8.96,3.71,2.29,2.29,3.71,5.45,3.71,8.95v163.59h138.25c7,0,12.67,5.67,12.67,12.66Z"></path>
        <path d="M588.33,559.49v164.87l-91.33,73.44-18,14.48-74.12,59.61-2.15,1.72c-7.25-20.24-11.81-41.85-13.24-64.35-.79-7.75-1.19-15.62-1.19-23.59,0-75.12,35.69-141.73,90.7-183.12,5.79-4.36,11.8-8.44,18-12.21,27.22-16.6,58.2-27.43,91.33-30.85Z"></path>
        <path d="M860.31,791.38c.01.98.02,1.96.02,2.95,0,145.07-110.88,262.67-247.66,262.67-88.18,0-165.59-48.87-209.47-122.46-5.52-9.26-10.51-18.91-14.93-28.9l9.74-7.84,10.87-8.74,2.67-2.14,67.45-54.25,18-14.47,91.33-73.45v40.92l-91.33,73.45-18,14.47-51.29,41.25-3.66,2.94c38.81,62.4,106.1,103.66,182.62,103.66,63.03,0,119.79-28,159.54-72.74,36.07-40.6,58.12-94.99,58.12-154.76s-21.33-112.37-56.35-152.74c-7.03-8.11-14.62-15.68-22.69-22.67-4.11-3.54-8.34-6.94-12.7-10.18-35.54-26.39-78.99-41.91-125.92-41.91v-34.69c1.99-.05,3.99-.08,6-.08,56.07,0,107.79,19.76,149.29,53.07,4.2,3.37,8.29,6.87,12.27,10.52,7.86,7.17,15.29,14.87,22.25,23.03,12.35,14.5,23.2,30.46,32.28,47.62,20.1,36.09,31.57,77.81,31.57,122.26,0,.92,0,1.85-.02,2.77v.44Z"></path>
      </g>
    </mask>
    <linearGradient id="grad" data-name="grad" x1="545.01" y1="1044.45" x2="544.99" y2="40.47" gradientUnits="userSpaceOnUse">
      <stop offset="0" stop-color="#455f8c"></stop>
      <stop offset=".19" stop-color="#535e8b"></stop>
      <stop offset=".56" stop-color="#795d89"></stop>
      <stop offset="1" stop-color="#af5b87"></stop>
    </linearGradient>
  </defs>
  <g mask="url(#mask)">
    <rect fill="url(#grad)" x="212" y="22.6" width="666" height="1039.4"></rect>
  </g>
</svg>