<?xml version="1.0"?>
<svg id="_Слой_1" data-name="Слой 1" xmlns="http://www.w3.org/2000/svg" xmlns:xlink="http://www.w3.org/1999/xlink" viewBox="0 0 1080 1080">
  <defs>
    
    <mask id="mask" x="-182.96" y="-834.39" width="1177.92" height="1838.33" maskUnits="userSpaceOnUse">
      <g fill="white">
        <path d="M809.11,547.88h-279.63c-8.29,0-15.01-6.72-15.01-15.01V213.74c0-12.36,10.03-22.39,22.41-22.39,6.19,0,11.8,2.51,15.85,6.56,4.05,4.05,6.56,9.64,6.56,15.83v289.33h244.52c18.04,0,31.08,21.28,15.4,40.06-2.5,2.99-6.2,4.74-10.1,4.74Z"></path>
        <path d="M482.64,115.18v291.6l-161.53,129.89-31.84,25.61-131.09,105.43-3.8,3.04c-12.82-35.8-20.89-74.02-23.42-113.81-1.4-13.71-2.1-27.63-2.1-41.72,0-132.86,63.12-250.67,160.42-323.87,10.24-7.71,20.87-14.93,31.84-21.6,48.14-29.36,102.94-48.51,161.53-54.56Z"></path>
        <path d="M963.67,525.31c.02,1.73.04,3.47.04,5.22,0,256.58-196.11,464.57-438.02,464.57-155.96,0-292.87-86.43-370.48-216.59-9.76-16.38-18.59-33.45-26.41-51.11l17.23-13.87,19.23-15.46,4.72-3.78,119.3-95.95,31.84-25.59,161.53-129.91v72.37l-161.53,129.91-31.84,25.59-90.71,72.96-6.47,5.2c68.64,110.36,187.65,183.34,322.99,183.34,111.48,0,211.87-49.52,282.17-128.65,63.8-71.81,102.79-168,102.79-273.72s-37.73-198.74-99.66-270.14c-12.43-14.34-25.86-27.73-40.13-40.1-7.27-6.26-14.75-12.27-22.46-18-62.86-46.67-139.71-74.12-222.71-74.12v-61.35c3.52-.09,7.06-.14,10.61-.14,99.17,0,190.64,34.95,264.04,93.86,7.43,5.96,14.66,12.15,21.7,18.61,13.9,12.68,27.04,26.3,39.35,40.73,21.84,25.65,41.03,53.87,57.09,84.22,35.55,63.83,55.84,137.62,55.84,216.23,0,1.63,0,3.27-.04,4.9v.78Z"></path>
      </g>
    </mask>
    <linearGradient id="grad" data-name="grad" x1="406.02" y1="972.9" x2="405.98" y2="-802.79" gradientUnits="userSpaceOnUse">
      <stop offset="0" stop-color="#455f8c"></stop>
      <stop offset=".19" stop-color="#535e8b"></stop>
      <stop offset=".56" stop-color="#795d89"></stop>
      <stop offset="1" stop-color="#af5b87"></stop>
    </linearGradient>
  </defs>
  <g mask="url(#mask)">
    <rect fill="url(#grad)" x="-182.96" y="-834.39" width="1177.92" height="1838.33"></rect>
  </g>
</svg>